# Blender v2.90.1 OBJ File: 'House.blend'
# www.blender.org
mtllib Bush.mtl
o Cube.001_Cube.001
v 2.502331 -0.896496 3.714094
v 3.225938 -0.343716 4.239819
v 2.225943 -0.343716 4.564743
v 1.607905 -0.343712 3.714094
v 2.225943 -0.343716 2.863445
v 3.225938 -0.343716 3.188369
v 2.778719 0.550724 4.564743
v 1.778724 0.550723 4.239819
v 1.778724 0.550723 3.188369
v 2.778719 0.550724 2.863445
v 3.396757 0.550720 3.714094
v 2.502331 1.103504 3.714094
v 2.339875 -0.747150 4.214089
v 2.927654 -0.747150 4.023105
v 2.765200 -0.422234 4.523106
v 3.352979 -0.422232 3.714094
v 2.927654 -0.747150 3.405082
v 1.976601 -0.747148 3.714094
v 1.814142 -0.422232 4.214091
v 2.339875 -0.747150 3.214099
v 1.814142 -0.422232 3.214097
v 2.765200 -0.422234 2.905082
v 3.453389 0.103504 4.023107
v 3.453389 0.103504 3.405081
v 2.502331 0.103504 4.714094
v 3.090117 0.103504 4.523110
v 1.551273 0.103504 4.023107
v 1.914545 0.103504 4.523110
v 1.914545 0.103504 2.905077
v 1.551273 0.103504 3.405081
v 3.090117 0.103504 2.905077
v 2.502331 0.103504 2.714094
v 3.190520 0.629240 4.214091
v 2.239462 0.629242 4.523106
v 1.651683 0.629240 3.714094
v 2.239462 0.629242 2.905082
v 3.190520 0.629240 3.214097
v 2.664787 0.954158 4.214089
v 3.028061 0.954156 3.714094
v 2.077008 0.954158 4.023105
v 2.077008 0.954158 3.405082
v 2.664787 0.954158 3.214099
vt 0.820486 0.710386
vt 0.850717 0.754460
vt 0.790134 0.756792
vt 0.188806 0.721558
vt 0.230823 0.693026
vt 0.237940 0.743411
vt 0.766134 0.699140
vt 0.811885 0.661177
vt 0.864160 0.695367
vt 0.183450 0.774741
vt 0.820086 0.946499
vt 0.765804 0.953880
vt 0.789602 0.907983
vt 0.046149 0.721939
vt 0.088166 0.693026
vt 0.095283 0.744031
vt 0.587660 0.943687
vt 0.547453 0.960839
vt 0.557839 0.900940
vt 0.691029 0.955038
vt 0.642396 0.953510
vt 0.677276 0.903083
vt 0.142656 0.743717
vt 0.850361 0.901311
vt 0.040794 0.775364
vt 0.616517 0.896411
vt 0.281508 0.774865
vt 0.285312 0.825750
vt 0.237939 0.806074
vt 0.760745 0.860707
vt 0.720538 0.843555
vt 0.772797 0.811066
vt 0.864114 0.849356
vt 0.815481 0.850884
vt 0.833555 0.804394
vt 0.046150 0.828547
vt 0.095284 0.806694
vt 0.088167 0.857079
vt 0.444102 0.785372
vt 0.498818 0.776317
vt 0.473147 0.823919
vt 0.403270 0.883457
vt 0.414234 0.831638
vt 0.449146 0.881572
vt 0.503498 0.870325
vt 0.533730 0.826251
vt 0.547173 0.789340
vt 0.547173 0.885344
vt 0.142656 0.825746
vt 0.138852 0.775240
vt 0.494898 0.919535
vt 0.435985 0.927254
vt 0.230822 0.857079
vt 0.188805 0.828166
vt 0.647001 0.857895
vt 0.691029 0.861309
vt 0.592719 0.850514
vt 0.547173 0.865601
vt 0.730924 0.903454
vt 0.142656 0.806380
vt 0.000000 0.806388
vt 0.000000 0.743725
vt 0.142656 0.724355
vt 0.864114 0.943085
vt 0.720258 0.938793
vt 0.660470 1.000000
vt 0.599712 0.993328
vt 0.752972 0.653458
vt 0.720258 0.697254
vt 0.731221 0.749073
vt 0.761089 0.795339
vt 0.285312 0.724359
vt 0.815805 0.804394
vt 0.864160 0.791371
vn 0.1024 -0.9435 0.3151
vn 0.7002 -0.6617 0.2680
vn -0.2680 -0.9435 0.1947
vn -0.2680 -0.9435 -0.1947
vn 0.1024 -0.9435 -0.3151
vn 0.9050 -0.3304 0.2680
vn 0.0247 -0.3304 0.9435
vn -0.8897 -0.3304 0.3151
vn -0.5746 -0.3304 -0.7488
vn 0.5346 -0.3304 -0.7779
vn 0.8026 -0.1256 0.5831
vn -0.3066 -0.1256 0.9435
vn -0.9921 -0.1256 0.0000
vn -0.3066 -0.1256 -0.9435
vn 0.8026 -0.1256 -0.5831
vn 0.4089 0.6617 0.6284
vn -0.4713 0.6617 0.5831
vn -0.7002 0.6617 -0.2680
vn 0.0385 0.6617 -0.7488
vn 0.7240 0.6617 -0.1947
vn 0.2680 0.9435 -0.1947
vn 0.4911 0.7947 -0.3568
vn 0.4089 0.6617 -0.6284
vn -0.1024 0.9435 -0.3151
vn -0.1876 0.7947 -0.5773
vn -0.4713 0.6617 -0.5831
vn -0.3313 0.9435 0.0000
vn -0.6071 0.7947 0.0000
vn -0.7002 0.6617 0.2680
vn -0.1024 0.9435 0.3151
vn -0.1876 0.7947 0.5773
vn 0.0385 0.6617 0.7488
vn 0.2680 0.9435 0.1947
vn 0.4911 0.7947 0.3568
vn 0.7240 0.6617 0.1947
vn 0.8897 0.3304 -0.3151
vn 0.7947 0.1876 -0.5773
vn 0.5746 0.3304 -0.7488
vn -0.0247 0.3304 -0.9435
vn -0.3035 0.1876 -0.9342
vn -0.5346 0.3304 -0.7779
vn -0.9050 0.3304 -0.2680
vn -0.9822 0.1876 0.0000
vn -0.9050 0.3304 0.2680
vn -0.5346 0.3304 0.7779
vn -0.3035 0.1876 0.9342
vn -0.0247 0.3304 0.9435
vn 0.5746 0.3304 0.7488
vn 0.7947 0.1876 0.5773
vn 0.8897 0.3304 0.3151
vn 0.3066 0.1256 -0.9435
vn 0.3035 -0.1876 -0.9342
vn 0.0247 -0.3304 -0.9435
vn -0.8026 0.1256 -0.5831
vn -0.7947 -0.1876 -0.5773
vn -0.8897 -0.3304 -0.3151
vn -0.8026 0.1256 0.5831
vn -0.7947 -0.1876 0.5773
vn -0.5746 -0.3304 0.7488
vn 0.3066 0.1256 0.9435
vn 0.3035 -0.1876 0.9342
vn 0.5346 -0.3304 0.7779
vn 0.9921 0.1256 0.0000
vn 0.9822 -0.1876 0.0000
vn 0.9050 -0.3304 -0.2680
vn 0.4713 -0.6617 -0.5831
vn 0.1876 -0.7947 -0.5773
vn -0.0385 -0.6617 -0.7488
vn -0.4089 -0.6617 -0.6284
vn -0.4911 -0.7947 -0.3568
vn -0.7240 -0.6617 -0.1947
vn -0.7240 -0.6617 0.1947
vn -0.4911 -0.7947 0.3568
vn -0.4089 -0.6617 0.6284
vn 0.7002 -0.6617 -0.2680
vn 0.6071 -0.7947 0.0000
vn 0.3313 -0.9435 0.0000
vn -0.0385 -0.6617 0.7488
vn 0.1876 -0.7947 0.5773
vn 0.4713 -0.6617 0.5831
usemtl None
s off
f 1/1/1 14/2/1 13/3/1
f 2/4/2 14/5/2 16/6/2
f 1/1/3 13/3/3 18/7/3
f 1/1/4 18/7/4 20/8/4
f 1/1/5 20/8/5 17/9/5
f 2/4/6 16/6/6 23/10/6
f 3/11/7 15/12/7 25/13/7
f 4/14/8 19/15/8 27/16/8
f 5/17/9 21/18/9 29/19/9
f 6/20/10 22/21/10 31/22/10
f 2/4/11 23/10/11 26/23/11
f 3/11/12 25/13/12 28/24/12
f 4/14/13 27/16/13 30/25/13
f 5/17/14 29/19/14 32/26/14
f 6/27/15 31/28/15 24/29/15
f 7/30/16 33/31/16 38/32/16
f 8/33/17 34/34/17 40/35/17
f 9/36/18 35/37/18 41/38/18
f 10/39/19 36/40/19 42/41/19
f 11/42/20 37/43/20 39/44/20
f 39/44/21 42/41/21 12/45/21
f 39/44/22 37/43/22 42/41/22
f 37/43/23 10/39/23 42/41/23
f 42/41/24 41/46/24 12/45/24
f 42/41/25 36/40/25 41/46/25
f 36/40/26 9/47/26 41/46/26
f 41/46/27 40/48/27 12/45/27
f 41/38/28 35/37/28 40/49/28
f 35/37/29 8/50/29 40/49/29
f 40/48/30 38/51/30 12/45/30
f 40/35/31 34/34/31 38/32/31
f 34/34/32 7/30/32 38/32/32
f 38/51/33 39/44/33 12/45/33
f 38/51/34 33/52/34 39/44/34
f 33/52/35 11/42/35 39/44/35
f 24/29/36 37/53/36 11/54/36
f 24/29/37 31/28/37 37/53/37
f 31/22/38 10/55/38 37/56/38
f 32/26/39 36/57/39 10/55/39
f 32/26/40 29/19/40 36/57/40
f 29/19/41 9/58/41 36/57/41
f 30/25/42 35/37/42 9/36/42
f 30/25/43 27/16/43 35/37/43
f 27/16/44 8/50/44 35/37/44
f 28/24/45 34/34/45 8/33/45
f 28/24/46 25/13/46 34/34/46
f 25/13/47 7/30/47 34/34/47
f 26/59/48 33/31/48 7/30/48
f 26/23/49 23/10/49 33/60/49
f 23/10/50 11/54/50 33/60/50
f 31/22/51 32/26/51 10/55/51
f 31/22/52 22/21/52 32/26/52
f 22/21/53 5/17/53 32/26/53
f 29/61/54 30/25/54 9/36/54
f 29/61/55 21/62/55 30/25/55
f 21/62/56 4/14/56 30/25/56
f 27/16/57 28/63/57 8/50/57
f 27/16/58 19/15/58 28/63/58
f 19/64/59 3/11/59 28/24/59
f 25/13/60 26/59/60 7/30/60
f 25/13/61 15/12/61 26/59/61
f 15/12/62 2/65/62 26/59/62
f 23/10/63 24/29/63 11/54/63
f 23/10/64 16/6/64 24/29/64
f 16/6/65 6/27/65 24/29/65
f 17/66/66 22/21/66 6/20/66
f 17/66/67 20/67/67 22/21/67
f 20/67/68 5/17/68 22/21/68
f 20/67/69 21/18/69 5/17/69
f 20/8/70 18/7/70 21/68/70
f 18/7/71 4/69/71 21/68/71
f 18/7/72 19/70/72 4/69/72
f 18/7/73 13/3/73 19/70/73
f 13/3/74 3/71/74 19/70/74
f 16/6/75 17/72/75 6/27/75
f 16/6/76 14/5/76 17/72/76
f 14/2/77 1/1/77 17/9/77
f 13/3/78 15/73/78 3/71/78
f 13/3/79 14/2/79 15/73/79
f 14/2/80 2/74/80 15/73/80
