# Blender v2.90.1 OBJ File: 'House.blend'
# www.blender.org
mtllib StepStones.mtl
o Cube.001_Cube.004
v 3.070187 -0.091886 1.629066
v 3.070187 0.054298 1.629066
v 3.960613 0.054297 0.693122
v 3.960613 -0.091886 0.693122
v 4.033153 -0.091886 1.408662
v 3.568847 -0.091886 1.872968
v 3.568847 0.054298 1.872968
v 4.033153 0.054298 1.408662
v 3.805830 -0.091886 0.778233
v 4.033153 -0.091886 1.005555
v 4.033153 0.054298 1.005555
v 3.805830 0.054298 0.778233
v 2.938417 -0.091886 1.179247
v 3.339431 -0.091886 0.778233
v 3.339431 0.054298 0.778233
v 2.938417 0.054298 1.179247
v 4.923579 -0.091886 0.472719
v 4.459273 -0.091886 0.937024
v 4.459273 0.054297 0.937024
v 4.923579 0.054297 0.472719
v 4.696257 -0.091886 -0.157711
v 4.923579 -0.091886 0.069612
v 4.923579 0.054297 0.069612
v 4.696257 0.054297 -0.157711
v 3.828844 -0.091886 0.243303
v 4.229857 -0.091886 -0.157711
v 4.229857 0.054297 -0.157711
v 3.828844 0.054297 0.243303
v 4.938427 0.054297 1.481238
v 4.938427 -0.091886 1.481238
v 5.576956 -0.091886 1.335091
v 5.269082 -0.091886 1.642966
v 5.269082 0.054297 1.642966
v 5.576956 0.054297 1.335091
v 5.426222 -0.091886 0.917063
v 5.576956 -0.091886 1.067797
v 5.576956 0.054297 1.067797
v 5.426222 0.054297 0.917063
v 4.851053 -0.091886 1.182970
v 5.116960 -0.091886 0.917063
v 5.116960 0.054297 0.917063
v 4.851053 0.054297 1.182970
vt 0.829613 0.795691
vt 0.882087 0.795691
vt 0.882087 0.923397
vt 0.829613 0.923397
vt 0.672193 0.664112
vt 0.724666 0.664112
vt 0.724666 0.820207
vt 0.672193 0.820207
vt 0.882087 0.576086
vt 0.934560 0.576086
vt 0.934560 0.791042
vt 0.882087 0.791042
vt 0.829613 0.703792
vt 0.777140 0.703792
vt 0.777140 0.576086
vt 0.829613 0.576086
vt 0.724666 1.000000
vt 0.672193 1.000000
vt 0.438413 0.000000
vt 0.553811 0.000000
vt 0.672192 0.127706
vt 0.672193 0.347312
vt 0.524574 0.434398
vt 0.336097 0.364642
vt 0.336096 0.110376
vt 0.672193 0.576086
vt 0.724666 0.576086
vt 0.934560 0.913410
vt 0.882087 0.913410
vt 0.829613 0.576086
vt 0.882087 0.576086
vt 0.672192 0.521484
vt 0.672192 0.741090
vt 0.553811 0.868796
vt 0.438413 0.868796
vt 0.336096 0.758420
vt 0.336096 0.504154
vt 0.524573 0.434398
vt 0.777140 0.911974
vt 0.724666 0.911974
vt 0.724666 0.755879
vt 0.777140 0.755879
vt 0.947526 0.337324
vt 0.895053 0.337324
vt 0.895053 0.122367
vt 0.947526 0.122368
vt 0.724666 0.576086
vt 0.777140 0.576086
vt 0.233780 0.868796
vt 0.118381 0.868796
vt 0.000000 0.741090
vt 0.000000 0.521484
vt 0.147619 0.434398
vt 0.336096 0.504154
vt 0.336096 0.758420
vt 0.777140 1.000000
vt 0.724666 1.000000
vt 0.895053 0.000000
vt 0.947526 0.000000
vt 0.829613 0.923397
vt 0.777140 0.923397
vt 0.336096 0.087086
vt 0.336096 0.306692
vt 0.217715 0.434398
vt 0.102317 0.434398
vt 0.000000 0.324022
vt 0.000000 0.069756
vt 0.188477 0.000000
vt 0.947526 0.422004
vt 0.895053 0.422004
vt 0.895053 0.337324
vt 0.947526 0.337324
vt 0.987034 0.798808
vt 0.934560 0.798808
vt 0.934560 0.695304
vt 0.987034 0.695304
vt 0.947526 0.000000
vt 1.000000 0.000000
vt 1.000000 0.142534
vt 0.947527 0.142534
vt 0.934560 0.576086
vt 0.987034 0.576086
vt 0.827208 0.576085
vt 0.750689 0.576086
vt 0.672193 0.491406
vt 0.672193 0.345788
vt 0.770076 0.288043
vt 0.895053 0.334297
vt 0.895053 0.502897
vt 0.987034 0.857177
vt 0.934560 0.857177
vt 1.000000 0.223675
vt 0.947526 0.223675
vt 0.947526 0.567621
vt 0.895053 0.567621
vt 0.895053 0.057746
vt 0.895053 0.203363
vt 0.816556 0.288043
vt 0.740037 0.288043
vt 0.672193 0.214854
vt 0.672193 0.046254
vt 0.797169 0.000000
vn 0.0000 0.0000 -1.0000
vn 1.0000 0.0000 0.0000
vn -0.4394 0.0000 0.8983
vn 0.7071 0.0000 0.7071
vn 0.0000 1.0000 0.0000
vn 0.7071 0.0000 -0.7071
vn -0.9597 0.0000 0.2811
vn -0.7071 0.0000 -0.7071
vn 0.0000 -1.0000 0.0000
usemtl None
s off
f 14/1/1 15/2/1 12/3/1 9/4/1
f 10/5/2 11/6/2 8/7/2 5/8/2
f 6/9/3 7/10/3 2/11/3 1/12/3
f 26/13/1 27/14/1 24/15/1 21/16/1
f 7/17/4 6/18/4 5/8/4 8/7/4
f 11/19/5 12/20/5 15/21/5 16/22/5 2/23/5 7/24/5 8/25/5
f 11/6/6 10/5/6 9/26/6 12/27/6
f 1/12/7 2/11/7 16/28/7 13/29/7
f 15/2/8 14/1/8 13/30/8 16/31/8
f 13/32/9 14/33/9 9/34/9 10/35/9 5/36/9 6/37/9 1/38/9
f 22/39/2 23/40/2 20/41/2 17/42/2
f 18/43/3 19/44/3 3/45/3 4/46/3
f 19/47/4 18/48/4 17/42/4 20/41/4
f 23/49/5 24/50/5 27/51/5 28/52/5 3/53/5 19/54/5 20/55/5
f 23/40/6 22/39/6 21/56/6 24/57/6
f 4/46/7 3/45/7 28/58/7 25/59/7
f 27/14/8 26/13/8 25/60/8 28/61/8
f 25/62/9 26/63/9 21/64/9 22/65/9 17/66/9 18/67/9 4/68/9
f 40/69/1 41/70/1 38/71/1 35/72/1
f 36/73/2 37/74/2 34/75/2 31/76/2
f 32/77/3 33/78/3 29/79/3 30/80/3
f 33/81/4 32/82/4 31/76/4 34/75/4
f 37/83/5 38/84/5 41/85/5 42/86/5 29/87/5 33/88/5 34/89/5
f 37/74/6 36/73/6 35/90/6 38/91/6
f 30/80/7 29/79/7 42/92/7 39/93/7
f 41/70/8 40/69/8 39/94/8 42/95/8
f 39/96/9 40/97/9 35/98/9 36/99/9 31/100/9 32/101/9 30/102/9
