# Blender v2.90.1 OBJ File: 'House.blend'
# www.blender.org
mtllib Trunk.mtl
o Cube.001_Cube.005
v 0.666439 -1.000000 -6.658255
v 0.666439 3.428319 -6.658255
v 0.761001 -1.000000 -6.639446
v 0.761001 3.428319 -6.639446
v 0.841167 -1.000000 -6.585881
v 0.841167 3.428319 -6.585881
v 0.894732 -1.000000 -6.505715
v 0.894732 3.428319 -6.505715
v 0.913541 -1.000000 -6.411153
v 0.913541 3.428319 -6.411153
v 0.894732 -1.000000 -6.316591
v 0.894732 3.428319 -6.316591
v 0.841167 -1.000000 -6.236425
v 0.841167 3.428319 -6.236425
v 0.761001 -1.000000 -6.182860
v 0.761001 3.428319 -6.182860
v 0.666439 -1.000000 -6.164051
v 0.666439 3.428319 -6.164051
v 0.571877 -1.000000 -6.182860
v 0.571877 3.428319 -6.182860
v 0.491712 -1.000000 -6.236425
v 0.491712 3.428319 -6.236425
v 0.438147 -1.000000 -6.316591
v 0.438147 3.428319 -6.316591
v 0.419337 -1.000000 -6.411153
v 0.419337 3.428319 -6.411153
v 0.438147 -1.000000 -6.505715
v 0.438147 3.428319 -6.505715
v 0.491712 -1.000000 -6.585881
v 0.491712 3.428319 -6.585881
v 0.571878 -1.000000 -6.639446
v 0.571878 3.428319 -6.639446
vt 0.937500 1.000000
vt 0.875000 1.000000
vt 0.875000 0.500000
vt 0.937500 0.500000
vt 0.812500 1.000000
vt 0.812500 0.500000
vt 0.750000 1.000000
vt 0.750000 0.500000
vt 0.687500 1.000000
vt 0.687500 0.500000
vt 0.625000 1.000000
vt 0.625000 0.500000
vt 0.562500 1.000000
vt 0.562500 0.500000
vt 0.500000 1.000000
vt 0.500000 0.500000
vt 0.437500 1.000000
vt 0.437500 0.500000
vt 0.375000 1.000000
vt 0.375000 0.500000
vt 0.312500 1.000000
vt 0.312500 0.500000
vt 0.250000 1.000000
vt 0.250000 0.500000
vt 0.187500 1.000000
vt 0.187500 0.500000
vt 0.125000 1.000000
vt 0.125000 0.500000
vt 0.062500 1.000000
vt 0.062500 0.500000
vt 0.000000 1.000000
vt 0.000000 0.500000
vt 0.250000 0.490000
vt 0.158156 0.471731
vt 0.080295 0.419706
vt 0.028269 0.341844
vt 0.010000 0.250000
vt 0.028269 0.158156
vt 0.080294 0.080294
vt 0.158156 0.028269
vt 0.250000 0.010000
vt 0.341844 0.028269
vt 0.419706 0.080294
vt 0.471731 0.158156
vt 0.490000 0.250000
vt 0.471731 0.341844
vt 0.419706 0.419706
vt 0.341844 0.471731
vt 0.750000 0.490000
vt 0.841844 0.471731
vt 0.919706 0.419706
vt 0.971731 0.341844
vt 0.990000 0.250000
vt 0.971731 0.158156
vt 0.919706 0.080294
vt 0.841844 0.028269
vt 0.750000 0.010000
vt 0.658156 0.028269
vt 0.580294 0.080294
vt 0.528269 0.158156
vt 0.510000 0.250000
vt 0.528269 0.341844
vt 0.580295 0.419706
vt 0.658156 0.471731
vt 1.000000 1.000000
vt 1.000000 0.500000
vn 0.5556 0.0000 -0.8315
vn 0.8315 0.0000 -0.5556
vn 0.9808 0.0000 -0.1951
vn 0.9808 0.0000 0.1951
vn 0.8315 0.0000 0.5556
vn 0.5556 0.0000 0.8315
vn 0.1951 0.0000 0.9808
vn -0.1951 0.0000 0.9808
vn -0.5556 0.0000 0.8315
vn -0.8315 0.0000 0.5556
vn -0.9808 0.0000 0.1951
vn -0.9808 0.0000 -0.1951
vn -0.8315 0.0000 -0.5556
vn -0.5556 0.0000 -0.8315
vn -0.1951 0.0000 -0.9808
vn 0.0000 1.0000 -0.0000
vn 0.0000 -1.0000 0.0000
vn 0.1951 0.0000 -0.9808
usemtl None
s off
f 4/1/1 6/2/1 5/3/1 3/4/1
f 6/2/2 8/5/2 7/6/2 5/3/2
f 8/5/3 10/7/3 9/8/3 7/6/3
f 10/7/4 12/9/4 11/10/4 9/8/4
f 12/9/5 14/11/5 13/12/5 11/10/5
f 14/11/6 16/13/6 15/14/6 13/12/6
f 16/13/7 18/15/7 17/16/7 15/14/7
f 18/15/8 20/17/8 19/18/8 17/16/8
f 20/17/9 22/19/9 21/20/9 19/18/9
f 22/19/10 24/21/10 23/22/10 21/20/10
f 24/21/11 26/23/11 25/24/11 23/22/11
f 26/23/12 28/25/12 27/26/12 25/24/12
f 28/25/13 30/27/13 29/28/13 27/26/13
f 30/27/14 32/29/14 31/30/14 29/28/14
f 32/29/15 2/31/15 1/32/15 31/30/15
f 2/33/16 32/34/16 30/35/16 28/36/16 26/37/16 24/38/16 22/39/16 20/40/16 18/41/16 16/42/16 14/43/16 12/44/16 10/45/16 8/46/16 6/47/16 4/48/16
f 1/49/17 3/50/17 5/51/17 7/52/17 9/53/17 11/54/17 13/55/17 15/56/17 17/57/17 19/58/17 21/59/17 23/60/17 25/61/17 27/62/17 29/63/17 31/64/17
f 2/65/18 4/1/18 3/4/18 1/66/18
